<svg xmlns="http://www.w3.org/2000/svg" viewBox="0 0 64 64" fill="none">
  <!-- Minecraft 像素风格箱子 -->
  <!-- 箱子主体 - 深棕色 -->
  <rect x="12" y="20" width="40" height="32" fill="#8B4513"/>
  
  <!-- 箱子顶部 - 浅棕色 -->
  <rect x="12" y="20" width="40" height="8" fill="#A0522D"/>
  
  <!-- 箱子前面板 -->
  <rect x="12" y="28" width="40" height="24" fill="#654321"/>
  
  <!-- 像素化边框 -->
  <rect x="12" y="20" width="4" height="32" fill="#5C2E0A"/>
  <rect x="48" y="20" width="4" height="32" fill="#5C2E0A"/>
  <rect x="12" y="20" width="40" height="4" fill="#5C2E0A"/>
  <rect x="12" y="48" width="40" height="4" fill="#5C2E0A"/>
  
  <!-- 中间分隔线 -->
  <rect x="30" y="20" width="4" height="32" fill="#5C2E0A"/>
  
  <!-- 金色锁扣 - 像素化 -->
  <rect x="26" y="36" width="12" height="8" fill="#FFD700"/>
  <rect x="28" y="38" width="8" height="4" fill="#DAA520"/>
  <rect x="30" y="38" width="4" height="4" fill="#8B4513"/>
  
  <!-- 3D 深度效果 -->
  <polygon points="12,20 16,16 56,16 52,20" fill="#4A2511"/>
  <polygon points="52,20 56,16 56,48 52,52" fill="#3D1F0F"/>
</svg>
